<?xml version="1.0" standalone="no"?>
<!DOCTYPE svg PUBLIC "-//W3C//DTD SVG 20010904//EN"
 "http://www.w3.org/TR/2001/REC-SVG-20010904/DTD/svg10.dtd">
<svg version="1.0" xmlns="http://www.w3.org/2000/svg"
 width="1024.000000pt" height="1024.000000pt" viewBox="0 0 1024.000000 1024.000000"
 preserveAspectRatio="xMidYMid meet">

<g transform="translate(0.000000,1024.000000) scale(0.100000,-0.100000)"
fill="#000000" stroke="none">
<path d="M2320 6950 c-101 -13 -230 -46 -332 -85 -541 -209 -849 -715 -798
-1310 48 -563 446 -1012 1002 -1132 124 -27 407 -24 543 5 102 22 215 62 303
106 144 73 352 246 352 293 0 22 -378 403 -400 403 -8 0 -51 -30 -95 -66 -84
-70 -215 -140 -279 -151 l-38 -6 103 139 c56 76 180 243 274 369 94 127 175
238 178 248 4 11 -1 25 -13 37 -19 19 -34 20 -243 20 l-223 0 53 197 c30 108
60 207 66 220 l12 23 95 -56 c74 -45 98 -55 115 -48 30 13 395 390 395 409 0
32 -21 55 -118 127 -159 120 -343 203 -537 243 -93 19 -321 27 -415 15z m358
-125 c114 -16 248 -58 344 -106 81 -41 208 -126 215 -145 3 -9 -37 -58 -113
-137 -168 -173 -148 -163 -220 -118 -230 145 -518 162 -747 45 -239 -121 -374
-321 -407 -597 -41 -346 109 -642 397 -786 l81 -41 -8 -32 c-4 -18 -22 -90
-40 -159 -19 -69 -31 -133 -27 -142 8 -21 55 -33 76 -20 9 5 69 75 135 154
l118 144 67 7 c139 16 316 92 398 170 l31 30 29 -20 c15 -11 78 -71 138 -132
l110 -111 -56 -52 c-224 -205 -593 -305 -933 -251 -421 67 -756 343 -900 744
-88 245 -93 530 -14 780 120 375 440 668 823 755 167 37 335 44 503 20z m-230
-517 c-8 -13 -76 -125 -151 -250 -75 -125 -175 -288 -221 -362 -107 -171 -118
-193 -111 -216 6 -19 17 -20 201 -20 155 0 194 -3 194 -13 0 -8 -18 -79 -39
-158 -22 -79 -44 -163 -51 -186 -14 -54 -27 -55 -108 -5 -76 46 -164 130 -209
200 -97 150 -126 363 -77 555 66 261 305 463 563 476 22 1 22 0 9 -21z m181
-4 c40 -12 51 -19 47 -31 -4 -8 -36 -127 -72 -264 -77 -295 -78 -288 24 -290
37 -1 128 -4 203 -8 l136 -6 -109 -150 c-247 -340 -555 -741 -564 -733 -1 2
41 160 93 351 52 191 92 354 89 362 -4 12 -35 15 -163 16 -87 1 -168 1 -180 1
-13 -1 -23 2 -23 5 0 3 42 73 93 157 52 83 152 248 222 366 119 199 144 240
149 240 1 0 26 -7 55 -16z"/>
<path d="M3560 6790 c-20 -20 -20 -30 -20 -1087 0 -841 3 -1073 13 -1093 l13
-25 668 -3 c612 -2 671 -1 688 14 17 16 18 37 18 271 0 240 -1 254 -20 273
-19 19 -33 20 -382 20 l-363 0 2 132 3 133 312 3 c209 1 316 6 325 13 18 16
19 519 1 537 -9 9 -95 12 -325 12 l-313 0 -1 110 c-1 61 -2 116 -3 123 -1 9
79 12 368 13 352 1 369 2 383 20 20 26 15 516 -5 536 -10 10 -149 14 -677 16
-655 2 -665 2 -685 -18z m1193 -100 l67 0 -2 -172 -3 -173 -364 -3 c-249 -1
-369 -6 -378 -13 -10 -9 -13 -57 -13 -212 0 -172 2 -203 17 -219 15 -17 39
-18 327 -18 l311 0 0 -170 0 -169 -318 -3 c-269 -3 -319 -5 -327 -18 -5 -8
-10 -112 -10 -231 0 -183 2 -219 15 -229 12 -10 95 -13 364 -11 192 0 356 -2
365 -5 14 -5 16 -30 16 -175 l0 -169 -580 -2 -580 -3 0 997 c0 654 3 997 10
1000 8 2 568 2 1083 -2z"/>
<path d="M5147 6792 c-16 -17 -17 -108 -17 -1105 0 -1064 0 -1087 19 -1097 12
-6 126 -10 299 -10 227 0 282 3 291 14 8 10 12 116 14 362 l2 349 30 0 c25 0
34 -8 63 -60 19 -33 107 -188 195 -345 88 -157 167 -293 175 -302 14 -16 43
-18 337 -18 331 0 345 2 345 40 0 15 -146 266 -379 650 l-81 134 27 14 c87 45
198 174 249 287 69 157 89 405 45 570 -79 302 -301 493 -611 526 -47 5 -288 9
-536 9 -424 0 -452 -1 -467 -18z m1073 -116 c196 -41 357 -185 419 -375 63
-194 37 -460 -60 -613 -46 -71 -131 -149 -206 -189 -43 -23 -69 -43 -71 -55
-1 -10 30 -73 69 -139 39 -66 134 -225 211 -352 76 -128 141 -239 144 -246 7
-19 -424 -13 -442 5 -7 7 -98 164 -203 348 -105 184 -199 341 -208 348 -11 7
-50 12 -107 12 -137 0 -126 31 -126 -375 0 -188 -2 -344 -4 -346 -2 -2 -92 -3
-200 -1 l-196 3 0 994 0 994 23 3 c12 2 216 2 452 1 349 -1 444 -4 505 -17z"/>
<path d="M5650 6341 c-16 -31 -13 -562 3 -585 12 -16 30 -18 203 -14 168 3
194 6 236 25 72 33 112 68 144 125 27 50 29 60 29 163 0 104 -2 113 -31 165
-33 60 -99 112 -162 130 -20 5 -121 10 -224 10 -175 0 -188 -1 -198 -19z m410
-113 c80 -41 115 -128 90 -226 -29 -115 -95 -153 -277 -160 l-123 -5 0 200 c0
110 3 203 7 206 3 4 63 7 133 7 111 0 131 -3 170 -22z"/>
<path d="M7028 6799 c-17 -9 -18 -73 -18 -1104 0 -1072 0 -1095 19 -1105 12
-6 129 -10 310 -10 l291 0 15 24 c14 21 15 140 13 1101 -3 1052 -3 1077 -22
1091 -16 11 -74 14 -305 14 -176 0 -293 -5 -303 -11z m350 -108 l162 -1 0
-995 0 -995 -210 0 -210 0 0 993 c0 547 2 996 4 998 2 2 24 3 48 3 24 -1 116
-2 206 -3z"/>
<path d="M7903 6798 l-23 -11 0 -1088 c0 -975 2 -1089 16 -1103 14 -14 89 -16
683 -16 505 0 670 3 679 12 9 9 12 85 12 280 0 254 -1 268 -19 278 -13 6 -152
10 -385 10 l-366 0 0 135 0 135 320 0 c305 0 320 1 330 19 15 30 13 502 -2
524 -12 15 -46 17 -328 19 l-315 3 0 120 0 120 366 1 c202 1 372 4 378 8 8 5
11 86 11 271 0 261 0 264 -22 279 -20 14 -99 16 -668 15 -442 0 -652 -4 -667
-11z m1200 -107 l47 -1 0 -175 0 -175 -368 0 c-273 0 -371 -3 -380 -12 -9 -9
-12 -70 -12 -214 0 -198 1 -203 22 -218 19 -14 67 -16 325 -16 l303 0 0 -170
0 -170 -307 0 c-271 0 -309 -2 -325 -17 -16 -15 -18 -36 -18 -233 0 -176 3
-220 14 -229 10 -9 116 -12 385 -12 l371 -1 -2 -174 c-2 -96 -6 -174 -10 -174
-5 0 -267 0 -583 0 l-575 0 0 994 0 995 48 3 c38 2 893 1 1065 -1z"/>
<path d="M1405 4177 c-8 -4 -15 -13 -15 -19 0 -6 -7 -19 -16 -29 -32 -36 20
-54 64 -23 27 19 55 71 43 78 -12 8 -58 4 -76 -7z"/>
<path d="M5185 4182 c-16 -11 -55 -69 -55 -81 0 -6 15 -11 34 -11 27 0 41 8
71 41 20 22 35 42 33 44 -9 8 -74 14 -83 7z"/>
<path d="M6293 4182 c-6 -4 -23 -24 -37 -44 -26 -39 -21 -48 29 -48 23 0 85
62 85 85 0 12 -60 18 -77 7z"/>
<path d="M7206 4147 c-34 -45 -33 -57 7 -57 24 0 38 8 58 33 44 56 44 57 0 57
-34 0 -44 -5 -65 -33z"/>
<path d="M2561 4065 c-146 -46 -199 -248 -98 -371 74 -89 223 -100 296 -21 27
30 24 47 -12 66 -22 12 -28 11 -55 -9 -37 -27 -98 -30 -134 -6 -29 19 -58 82
-58 124 1 45 36 109 69 126 42 22 72 20 115 -9 l37 -25 29 22 c17 12 30 25 30
28 0 9 -52 56 -75 68 -37 18 -99 21 -144 7z"/>
<path d="M4142 4070 c-165 -40 -218 -278 -88 -398 67 -62 177 -71 251 -21 47
33 52 49 19 76 -25 19 -29 20 -49 7 -42 -27 -85 -34 -120 -20 -133 56 -92 291
48 273 22 -3 49 -15 62 -27 l24 -22 30 22 c17 12 31 25 31 29 0 10 -50 56 -75
69 -31 15 -96 21 -133 12z"/>
<path d="M5800 4065 c-49 -15 -101 -60 -128 -109 -12 -22 -17 -56 -17 -111 0
-69 4 -86 27 -126 64 -109 242 -134 335 -47 21 19 23 31 23 110 l0 88 -90 0
-90 0 0 -35 c0 -35 0 -35 45 -35 45 0 45 0 45 -35 0 -28 -5 -37 -30 -50 -36
-19 -61 -19 -106 0 -68 28 -95 152 -48 222 36 55 130 67 175 22 19 -19 20 -19
49 3 17 12 30 27 30 34 0 21 -62 62 -110 73 -55 13 -54 13 -110 -4z"/>
<path d="M1284 4061 c-2 -2 -4 -100 -4 -218 l0 -213 135 0 135 0 0 40 0 40
-90 0 -90 0 0 50 0 50 80 0 80 0 0 35 0 35 -80 0 -80 0 0 50 0 49 88 3 87 3 3
38 3 37 -98 1 c-54 1 -113 2 -131 3 -19 0 -36 -1 -38 -3z"/>
<path d="M1670 4063 c0 -2 -1 -99 -1 -215 l0 -213 126 -3 125 -3 0 41 0 40
-85 0 -85 0 0 178 0 178 -40 -1 c-22 0 -40 -1 -40 -2z"/>
<path d="M2034 4055 c-3 -6 -3 -104 -2 -218 l3 -207 133 -3 132 -2 0 43 0 42
-90 0 -90 0 0 50 0 50 81 0 80 0 -3 36 -3 37 -75 1 -75 1 -3 48 -3 47 90 0 91
0 0 43 0 42 -131 0 c-81 0 -133 -4 -135 -10z"/>
<path d="M2943 4062 l-53 -3 0 -40 0 -39 55 0 55 0 0 -178 0 -179 43 1 42 1 3
178 2 177 50 0 50 0 0 43 0 43 -97 0 c-54 -1 -122 -2 -150 -4z"/>
<path d="M3314 4056 c-2 -6 -3 -106 -2 -221 l3 -210 43 -2 42 -3 0 80 c0 43 5
82 10 85 23 14 47 -9 85 -80 22 -41 44 -76 50 -77 5 0 31 -2 57 -2 45 -1 47 0
34 19 -31 47 -96 156 -96 160 0 3 6 5 13 5 7 0 26 13 41 29 56 59 41 172 -28
209 -38 20 -245 27 -252 8z m211 -100 c11 -17 13 -30 6 -48 -11 -30 -29 -38
-87 -38 l-44 0 0 55 0 55 55 0 c46 0 57 -4 70 -24z"/>
<path d="M3770 4062 c0 -2 -1 -101 -2 -220 l-2 -216 42 0 42 -1 0 222 0 221
-40 -1 c-22 -1 -40 -4 -40 -5z"/>
<path d="M4470 3853 c0 -117 0 -216 0 -219 0 -4 18 -7 40 -8 l40 -2 0 222 0
222 -40 -1 -40 -2 0 -212z"/>
<path d="M4654 4061 c-2 -2 -4 -22 -4 -43 l0 -38 55 0 55 0 0 -178 0 -179 45
-1 45 -2 0 180 0 180 56 0 55 0 -3 42 -3 42 -148 0 c-82 1 -150 -1 -153 -3z"/>
<path d="M5064 4055 c-3 -6 -3 -104 -2 -218 l3 -208 133 -2 132 -2 0 43 0 42
-90 0 -90 0 0 50 0 50 80 0 80 0 0 35 0 35 -67 1 c-38 1 -74 1 -80 0 -9 -1
-13 14 -13 49 l0 50 91 0 c79 0 90 2 85 16 -3 9 -6 28 -6 43 l0 27 -126 -1
c-77 0 -128 -4 -130 -10z"/>
<path d="M6297 4062 l-127 -3 2 -214 3 -215 133 -3 132 -2 0 43 0 42 -90 0
-90 0 0 50 0 50 80 0 80 0 0 35 0 35 -80 0 -80 0 0 50 0 49 88 3 87 3 2 38 c0
20 -2 38 -5 40 -4 1 -64 1 -135 -1z"/>
<path d="M6580 4066 c0 0 -1 -99 -3 -219 l-2 -217 33 -2 c17 0 37 -1 44 -2 8
-1 10 39 9 144 -1 89 1 141 7 135 5 -5 49 -68 97 -140 48 -71 89 -132 91 -134
2 -3 24 -6 49 -7 l45 -3 0 223 0 222 -42 -2 -43 -2 -5 -138 -5 -139 -90 135
c-49 74 -91 137 -92 139 -2 4 -93 11 -93 7z"/>
<path d="M7102 3847 l3 -218 133 -2 132 -2 0 43 0 42 -90 0 -90 0 0 50 0 50
81 0 80 0 -3 36 -3 37 -75 1 -75 1 -3 47 -3 47 88 3 88 3 0 40 0 40 -133 0
-132 0 2 -218z"/>
<path d="M7528 4062 c-16 -3 -18 -22 -18 -218 l0 -214 45 0 44 0 3 78 c3 70 5
77 25 80 18 3 29 -11 67 -80 l45 -83 50 3 c28 2 51 6 51 8 0 2 -23 41 -50 86
-28 44 -49 81 -48 82 71 43 93 79 85 143 -7 61 -44 99 -111 113 -48 10 -150
11 -188 2z m190 -94 c7 -7 12 -26 12 -43 0 -44 -16 -55 -77 -55 l-53 0 0 55 0
55 53 0 c29 0 58 -5 65 -12z"/>
<path d="M8120 4048 c-5 -13 -41 -106 -79 -208 -38 -102 -72 -193 -76 -203 -6
-15 -2 -17 39 -15 51 1 58 7 75 60 l12 37 79 3 79 3 19 -50 19 -50 52 0 c31 0
50 4 47 10 -3 5 -42 106 -87 223 l-82 212 -44 0 c-36 0 -45 -4 -53 -22z m78
-167 c12 -38 22 -72 22 -75 0 -3 -23 -6 -51 -6 -43 0 -50 2 -45 18 3 9 12 43
21 75 9 31 20 57 23 57 4 0 17 -31 30 -69z"/>
<path d="M8500 3848 l0 -223 127 1 128 1 3 41 3 42 -85 0 -86 0 0 174 c0 172
0 174 -22 180 -13 3 -33 6 -45 6 l-23 0 0 -222z"/>
<path d="M8884 4061 c-2 -2 -4 -100 -4 -218 l0 -213 119 0 c66 0 126 -3 135
-6 13 -5 16 2 16 40 l0 46 -90 0 -90 0 0 50 0 50 80 0 80 0 0 35 0 35 -80 0
-80 0 0 50 0 50 91 0 90 0 -3 41 -3 41 -128 2 c-71 0 -131 -1 -133 -3z"/>
</g>
</svg>
